<?xml version="1.0" encoding="utf-8"?>
<!-- Generator: Adobe Illustrator 17.1.0, SVG Export Plug-In . SVG Version: 6.00 Build 0)  -->
<!DOCTYPE svg PUBLIC "-//W3C//DTD SVG 1.1//EN" "http://www.w3.org/Graphics/SVG/1.1/DTD/svg11.dtd">
<svg version="1.1" id="Layer_1" xmlns="http://www.w3.org/2000/svg" xmlns:xlink="http://www.w3.org/1999/xlink" x="0px" y="0px"
	 viewBox="0 0 106.7 31.9" enable-background="new 0 0 106.7 31.9" xml:space="preserve">
<path fill="#06B397" d="M28.4,2.1l-9,4.8v3.8l9-3.8V2.1"/>
<path fill="#06B397" d="M28.4,9.2l-9,3.8v3.8l9-2.9V9.2"/>
<path fill="#06B397" d="M28.4,16.8l-9,2.4V24l9-0.5V16.8"/>
<path fill="#007260" d="M29.4,2.1L37,6.9v3.8l-7.6-3.8V2.1"/>
<path fill="#007260" d="M29.4,9.2L37,13v3.8L29.4,14V9.2"/>
<path fill="#007260" d="M29.4,16.8l7.6,2.4V24l-7.6-0.5V16.8"/>
<path fill="#06B397" d="M12.5,24.1h5.2v-0.2l-4.2-8.2c1.2-0.6,2.1-1.3,2.7-2.2c0.6-1,0.9-2.1,0.9-3.5c0-1.9-0.7-3.5-2-4.5
	c-1.4-1-3.2-1.6-5.7-1.6H1.4v20.3h4.9v-7.2h2.7L12.5,24.1z M6.3,7.6h3.1c0.9,0,1.6,0.2,2.1,0.8c0.5,0.5,0.7,1.2,0.7,2
	s-0.2,1.6-0.7,2c-0.5,0.5-1.2,0.7-2.1,0.7H6.3C6.3,13.1,6.3,7.6,6.3,7.6z"/>
<path fill="#0066FF" d="M53.1,24.1v-0.2c-0.4-0.7-0.6-1.8-0.6-3.2V14c0-1.6-0.6-2.9-1.7-3.8c-1.1-1-2.6-1.4-4.6-1.4
	c-1.9,0-3.5,0.5-4.8,1.4s-1.9,2.1-1.9,3.6h4.7c0-1.1,0.6-1.7,1.7-1.7c1.2,0,1.8,0.7,1.8,2.1v0.8h-1.4c-2.3,0-4,0.4-5.3,1.2
	c-1.2,0.9-1.8,2.1-1.8,3.7c0,1.3,0.5,2.4,1.5,3.2s2.2,1.3,3.6,1.3c1.6,0,2.8-0.5,3.6-1.6c0.1,0.6,0.3,1,0.4,1.3
	C48.4,24.1,53.1,24.1,53.1,24.1z M44.4,20.6c-0.3-0.3-0.4-0.6-0.4-1c0-1.5,0.8-2.2,2.5-2.2h1.4v2.4c-0.2,0.3-0.4,0.6-0.8,0.9
	c-0.4,0.2-0.9,0.4-1.5,0.4C45,21,44.6,20.9,44.4,20.6z"/>
<path fill="#0066FF" d="M59.4,2.7h-4.7v21.4h4.7V2.7z"/>
<path fill="#0066FF" d="M65.9,9.1h-5l5.2,15.2l-0.4,1c-0.2,0.5-0.4,0.9-0.8,1s-0.9,0.3-1.5,0.3h-0.6v3.3c0.7,0.2,1.3,0.3,1.9,0.3
	c2.2,0,3.8-1,4.6-2.9l0.3-0.6l6.1-17.6h-5l-2.5,8.5L65.9,9.1z"/>
<path fill="#0066FF" d="M84.5,20.9c-0.3,0.2-0.8,0.4-1.4,0.4c-0.7,0-1.3-0.1-1.7-0.5c-0.4-0.3-0.7-0.8-0.7-1.5h-4.4
	c0,0.9,0.3,1.7,0.9,2.5c0.6,0.8,1.4,1.4,2.4,1.9c1,0.5,2.2,0.7,3.5,0.7c1.9,0,3.5-0.4,4.8-1.3s1.9-2,1.9-3.4c0-2-1.1-3.4-3.4-4.2
	c-0.7-0.2-1.5-0.4-2.4-0.6c-0.9-0.2-1.6-0.4-1.9-0.6c-0.4-0.2-0.6-0.6-0.6-1c0-0.4,0.2-0.8,0.5-1c0.3-0.3,0.8-0.4,1.2-0.4
	c1.3,0,1.9,0.6,1.9,1.8h4.7c0-1.5-0.6-2.7-1.8-3.6C86.6,9.2,85,8.8,83,8.8c-1.9,0-3.3,0.4-4.5,1.3c-1.1,0.9-1.7,2-1.7,3.4
	c0,0.8,0.2,1.5,0.6,2.1c0.4,0.6,1,1.1,1.8,1.5s1.7,0.8,2.9,1c1.2,0.2,1.9,0.5,2.4,0.8s0.6,0.6,0.6,1C84.9,20.3,84.8,20.6,84.5,20.9z
	"/>
<path fill="#0066FF" d="M102.4,23.6c1.1-0.5,1.9-1.1,2.5-1.9l-2.1-2.5c-0.9,1-2,1.6-3.5,1.6c-0.9,0-1.6-0.2-2.2-0.7
	c-0.6-0.5-1-1.1-1.1-2h9.3v-1.8c0-2.3-0.6-4.2-1.9-5.5s-2.9-1.9-5-1.9c-1.5,0-2.8,0.3-3.9,1c-1.1,0.7-1.9,1.6-2.5,2.8
	c-0.6,1.2-0.9,2.5-0.9,4.1v0.4c0,2.2,0.7,4,2.1,5.4c1.4,1.4,3.3,2.1,5.6,2.1C100.2,24.4,101.3,24.2,102.4,23.6z M100.1,13
	c0.4,0.4,0.6,1,0.6,1.8v0.4H96c0.2-1.8,1.1-2.7,2.5-2.7C99.2,12.4,99.8,12.6,100.1,13z"/>
</svg>
